<?xml version="1.0" standalone="no"?>
<!DOCTYPE svg PUBLIC "-//W3C//DTD SVG 20010904//EN"
 "http://www.w3.org/TR/2001/REC-SVG-20010904/DTD/svg10.dtd">
<svg version="1.0" xmlns="http://www.w3.org/2000/svg"
 width="800.000000pt" height="800.000000pt" viewBox="0 0 800.000000 800.000000"
 preserveAspectRatio="xMidYMid meet">
<metadata>
Created by potrace 1.14, written by Peter Selinger 2001-2017
</metadata>
<g transform="translate(0.000000,800.000000) scale(0.100000,-0.100000)"
fill="#000000" stroke="none">
<path d="M3758 7995 c-1 -1 -46 -6 -98 -9 -52 -4 -104 -9 -115 -11 -11 -3 -47
-7 -79 -10 -32 -3 -62 -7 -65 -9 -3 -2 -28 -6 -56 -10 -64 -7 -301 -59 -397
-86 -40 -12 -80 -23 -88 -25 -8 -2 -62 -19 -120 -38 -460 -154 -866 -376
-1250 -683 -132 -106 -427 -391 -525 -508 -401 -475 -683 -1013 -835 -1591
-23 -87 -64 -283 -75 -355 -4 -25 -9 -54 -11 -65 -27 -141 -39 -331 -39 -600
0 -214 4 -301 20 -455 19 -175 93 -534 141 -681 8 -25 16 -54 18 -65 2 -10 14
-46 26 -79 190 -526 420 -928 754 -1320 68 -80 356 -369 430 -431 525 -442
1102 -729 1756 -873 52 -11 111 -23 130 -26 19 -3 42 -8 50 -10 8 -3 40 -8 70
-11 30 -3 62 -7 70 -9 8 -1 47 -5 85 -10 39 -4 81 -9 95 -12 67 -11 585 -9
700 2 203 21 243 25 249 29 3 2 29 6 56 10 78 9 317 63 455 103 470 134 926
364 1320 667 58 44 110 85 116 91 6 5 41 35 77 65 84 70 345 334 420 425 33
39 66 79 76 90 206 245 451 660 582 986 44 110 108 284 114 314 3 11 9 31 15
45 23 59 97 378 115 500 4 25 9 54 11 65 26 139 39 330 39 595 0 420 -46 752
-152 1110 -14 46 -27 91 -28 100 -16 71 -139 377 -214 530 -55 113 -80 160
-151 285 -93 165 -255 391 -430 600 -34 41 -345 351 -396 395 -335 289 -729
530 -1130 691 -264 105 -607 202 -833 235 -20 3 -61 9 -91 14 -30 5 -86 12
-125 16 -38 4 -81 8 -95 11 -30 5 -587 13 -592 8z m269 -999 c4 -7 64 -73 133
-146 203 -215 429 -458 500 -540 15 -18 137 -155 155 -174 32 -36 96 -109 137
-156 25 -30 56 -66 68 -80 12 -14 39 -45 60 -70 253 -300 497 -622 687 -905
81 -121 213 -333 213 -342 0 -3 8 -17 18 -31 49 -71 215 -399 287 -567 25 -60
50 -119 55 -130 30 -65 131 -358 169 -490 27 -95 69 -254 74 -285 3 -14 10
-43 15 -65 6 -22 13 -51 16 -65 2 -14 13 -72 24 -130 11 -58 23 -123 26 -145
4 -22 11 -65 16 -95 5 -30 12 -73 15 -95 3 -22 7 -53 10 -70 2 -16 7 -59 10
-95 l7 -65 -59 -20 c-32 -10 -88 -31 -125 -46 l-66 -27 -53 216 c-30 120 -57
231 -60 247 -4 17 -23 86 -44 155 -20 69 -40 139 -45 155 -36 129 -143 440
-208 600 -219 546 -482 1020 -846 1525 -89 123 -248 332 -274 358 -7 8 -25 30
-40 50 -15 21 -29 39 -32 42 -3 3 -39 46 -80 95 -41 50 -84 101 -97 115 -12
14 -30 34 -40 46 -23 27 -140 158 -173 194 -14 15 -72 79 -130 141 -58 63
-221 231 -362 374 l-258 259 28 30 c15 16 68 72 117 124 50 51 94 100 98 108
10 18 44 18 54 0z m-289 -724 c119 -120 260 -263 312 -318 82 -87 130 -139
273 -298 16 -17 48 -53 70 -80 23 -27 61 -70 83 -95 23 -25 63 -73 90 -106 26
-33 51 -62 54 -65 36 -32 349 -450 461 -615 41 -60 80 -116 87 -123 6 -7 12
-17 12 -21 0 -5 22 -42 49 -83 53 -80 56 -85 174 -293 68 -120 257 -494 257
-509 0 -2 13 -33 29 -68 142 -310 300 -801 422 -1307 54 -227 57 -245 41 -257
-9 -8 -22 -14 -27 -14 -6 0 -98 -43 -204 -96 -106 -52 -195 -93 -197 -91 -3 2
-6 13 -8 23 -2 11 -18 73 -35 139 -17 66 -33 129 -35 140 -25 115 -209 684
-259 797 -8 18 -25 60 -38 93 -82 216 -260 583 -407 840 -228 397 -598 912
-915 1275 -13 14 -49 56 -82 95 -33 38 -67 76 -75 85 -8 9 -51 56 -95 105
-119 132 -219 237 -433 456 -107 109 -194 200 -194 204 0 7 56 76 101 124 14
15 46 50 70 77 123 138 185 204 193 204 5 0 107 -98 226 -218z m-644 -595
c154 -155 366 -379 472 -497 27 -30 51 -57 54 -60 51 -47 416 -490 526 -639
40 -53 81 -107 92 -121 96 -122 434 -648 475 -740 4 -8 11 -22 16 -30 42 -71
187 -366 246 -500 20 -47 43 -98 50 -115 7 -16 27 -64 43 -105 16 -41 33 -84
37 -95 4 -11 9 -24 11 -30 1 -5 24 -68 49 -140 69 -194 139 -431 210 -708 l62
-248 -46 -31 c-50 -34 -225 -170 -281 -217 -19 -17 -37 -31 -40 -31 -4 0 -11
26 -18 58 -46 223 -195 717 -305 1012 -203 543 -510 1112 -866 1605 -84 117
-204 279 -211 285 -3 3 -39 48 -80 100 -41 52 -79 100 -85 106 -5 6 -28 33
-50 60 -177 215 -394 453 -707 778 l-106 111 31 41 c18 23 77 97 132 164 55
67 104 128 110 136 5 8 12 14 14 14 2 0 77 -73 165 -163z m-571 -531 c183
-188 337 -352 427 -455 30 -35 62 -71 70 -80 9 -9 54 -61 100 -116 47 -55 87
-102 90 -105 4 -3 55 -66 114 -140 59 -74 112 -142 119 -150 60 -75 225 -306
314 -440 236 -353 418 -685 578 -1055 15 -33 47 -112 71 -175 25 -63 49 -124
55 -135 29 -61 215 -662 234 -755 2 -8 13 -53 25 -100 12 -47 23 -92 25 -100
2 -8 13 -55 24 -103 12 -48 21 -97 21 -107 0 -11 -26 -44 -57 -75 l-58 -55
-195 0 -195 0 -28 113 c-90 358 -215 738 -352 1072 -232 567 -576 1146 -1007
1698 -99 127 -243 304 -258 317 -3 3 -18 21 -34 40 -16 19 -52 62 -81 95 -30
33 -62 70 -73 83 -45 52 -182 201 -249 271 l-72 76 26 45 c15 25 30 49 35 55
5 5 44 63 88 128 94 139 159 227 166 227 3 0 38 -33 77 -74z m-415 -824 c148
-164 148 -164 287 -328 463 -548 792 -1040 1051 -1571 52 -105 94 -194 94
-197 0 -2 15 -37 33 -78 19 -40 44 -100 56 -133 13 -33 27 -69 32 -80 66 -150
289 -860 289 -921 0 -12 -47 -14 -259 -14 l-258 0 -28 98 c-145 511 -342 1000
-578 1432 -173 318 -339 578 -555 870 -99 133 -285 375 -302 390 -3 3 -25 30
-50 60 -54 66 -83 100 -132 154 -21 23 -38 47 -38 54 0 14 142 303 186 379
l27 44 33 -37 c19 -20 69 -75 112 -122z m-373 -750 c594 -738 980 -1413 1234
-2156 l40 -117 -72 61 c-102 88 -102 88 -201 164 -98 76 -370 256 -386 256 -5
0 -19 21 -31 48 -187 416 -513 961 -800 1337 -63 83 -61 77 -44 147 33 128
127 398 138 397 7 0 62 -62 122 -137z m-243 -924 c105 -157 231 -360 287 -463
69 -128 80 -149 78 -151 -2 -2 -66 23 -142 55 -77 32 -207 83 -288 112 l-148
54 6 75 c4 41 8 77 10 80 1 3 6 30 9 60 4 30 8 66 11 80 2 14 6 41 9 60 3 19
12 73 21 120 8 47 15 89 15 93 0 19 23 -12 132 -175z"/>
</g>
</svg>
